Coordinates
version=1
nRows=13
nColumns=36
inDegrees=yes

Units are S.I. units (second, meters, Newtons, ...)
If the header above contains a line with 'inDegrees', this indicates whether rotational values are in degrees (yes) or radians (no).

endheader
time	pelvis_tilt	pelvis_list	pelvis_rotation	pelvis_tx	pelvis_ty	pelvis_tz	hip_flexion_r	hip_adduction_r	hip_rotation_r	knee_angle_r	knee_angle_r_beta	ankle_angle_r	subtalar_angle_r	mtp_angle_r	hip_flexion_l	hip_adduction_l	hip_rotation_l	knee_angle_l	knee_angle_l_beta	ankle_angle_l	subtalar_angle_l	mtp_angle_l	lumbar_extension	lumbar_bending	lumbar_rotation	arm_flex_r	arm_add_r	arm_rot_r	elbow_flex_r	pro_sup_r	arm_flex_l	arm_add_l	arm_rot_l	elbow_flex_l	pro_sup_l
      4.16250000	    -10.33283887	      3.49897918	     -0.90256578	      0.42084606	      0.95399814	     -0.08223165	     15.28577881	    -10.43010858	     -2.39511261	     23.49289264	      0.41002833	     13.22163552	    -17.75325323	     -7.49999987	     16.05105802	     -3.01604748	     -6.93484605	     23.88653427	      0.41689867	      7.33324690	    -10.99019573	     -7.49999987	    -12.20114074	      1.36875020	     -3.39885955	     -0.10182510	    -18.03497165	     25.22479421	     26.81688168	     54.46635073	     -1.29501600	    -27.61416795	     38.49670534	     49.94801427	     54.34525105
      4.16666670	    -10.31653889	      3.45593230	     -0.94706973	      0.42462757	      0.95452957	     -0.08722969	     14.78352372	    -10.40713076	     -2.06996452	     22.70301455	      0.39624235	     12.83043330	    -18.09976760	     -7.49999987	     15.77494363	     -2.96226971	     -7.05750706	     23.60587729	      0.41200028	      7.21196957	    -11.20176790	     -7.49999987	    -11.90272029	      1.63271312	     -3.36914104	     -0.28801679	    -18.12505389	     24.86085735	     26.59786514	     53.92071415	     -1.25746261	    -27.22678269	     38.85055473	     49.49544826	     54.15322752
      4.17083330	    -10.45529156	      3.40426076	     -1.04042393	      0.42463360	      0.95463895	     -0.08715564	     14.59905785	    -10.31909005	     -1.65476189	     22.04202054	      0.38470583	     12.62161632	    -18.17781402	     -7.49999987	     15.68405324	     -2.91091973	     -7.06672410	     23.26128974	      0.40598609	      7.05446129	    -11.38471162	     -7.49999987	    -11.46068015	      1.80118197	     -3.36868779	     -0.61181058	    -18.29178533	     24.33969416	     26.55215619	     53.70468743	     -1.44540838	    -27.04011525	     38.87943592	     49.40863279	     54.15832711
      4.17500000	    -10.54231867	      3.36666600	     -1.04823502	      0.42488917	      0.95789629	     -0.08769311	     14.10978022	    -10.21227649	     -1.31713910	     21.01800873	      0.36683345	     12.13363065	    -18.34390233	     -7.49999987	     15.51252371	     -2.83507186	     -7.02571565	     22.85178313	      0.39883886	      6.70536427	    -11.59836605	     -7.49999987	    -11.05800852	      2.01523902	     -3.31922285	     -0.87831041	    -18.41496997	     23.65570153	     26.34707729	     53.42344462	     -1.44955881	    -26.66285537	     39.05327658	     48.87540520	     54.17300998
      4.17916670	    -10.79927019	      3.36726216	     -1.22998901	      0.42496087	      0.95483614	     -0.08729730	     14.00565913	    -10.15143905	     -1.07745214	     20.26352029	      0.35366515	     11.78128979	    -18.34102270	     -7.49999987	     15.59940705	     -2.77535066	     -7.07129115	     22.59035543	      0.39427608	      6.57722442	    -11.78512510	     -7.49999987	    -10.48578515	      2.09294386	     -3.14050607	     -1.29599950	    -18.56003599	     22.88995228	     26.48407291	     53.32794928	     -1.56210576	    -26.43400710	     39.09084157	     48.64408941	     54.31861584
      4.18333330	    -11.01291572	      3.29227723	     -1.36611987	      0.42538319	      0.95802887	     -0.08756654	     13.72081363	     -9.93561833	     -0.75608563	     19.28348348	      0.33656028	     11.40067080	    -18.26111535	     -7.49999987	     15.65784841	     -2.81525684	     -7.05122418	     22.31761683	      0.38951589	      6.31262108	    -12.09684457	     -7.49999987	    -10.13800861	      2.21058603	     -3.03476305	     -1.61183229	    -18.56654082	     22.44144170	     26.47887512	     53.23462021	     -1.61352731	    -26.21648249	     39.13760532	     48.23063356	     54.36489078
      4.18750000	    -11.25644799	      3.23894820	     -1.48412091	      0.42559229	      0.95765761	     -0.08749644	     13.58821454	     -9.77611747	     -0.53255759	     18.41715143	      0.32143993	     10.91565981	    -18.24512224	     -7.49999987	     15.78231817	     -2.83539434	     -7.02077638	     22.10565152	      0.38581640	      6.02724818	    -12.44917082	     -7.49999987	     -9.72769931	      2.32642304	     -2.99060030	     -1.80313810	    -18.52081115	     22.19560544	     26.57048664	     53.15012348	     -1.63281639	    -25.94159919	     39.25503907	     47.71032080	     54.34318858
      4.19166670	    -11.36758701	      3.13625402	     -1.56532034	      0.42983514	      0.96070933	     -0.08342869	     13.12825118	     -9.49635704	     -0.49152328	     17.43336885	      0.30426969	     10.49055924	    -17.81102742	     -7.49999987	     15.63490335	     -3.01495397	     -7.05127208	     21.74441273	      0.37951160	      5.67216539	    -12.27987169	     -7.49999987	     -9.24068486	      2.32239680	     -3.01067707	     -2.14297095	    -18.23540631	     22.22789607	     26.58006945	     52.98412737	     -1.79453465	    -25.83786108	     39.45424540	     47.12233491	     54.19789836
      4.19583330	    -11.57824022	      3.12429369	     -1.76679365	      0.42629135	      0.96013551	     -0.08772592	     13.19822198	     -9.45062404	     -0.29792111	     16.89123225	      0.29480762	     10.16446552	    -17.56627447	     -7.49999987	     15.74280817	     -2.98541378	     -7.11752147	     21.51614139	      0.37552751	      5.68677148	    -12.31729751	     -7.49999987	     -8.96736917	      2.36338102	     -3.05791078	     -2.24046681	    -18.25062395	     22.17030298	     26.56138133	     52.88559991	     -1.93153599	    -25.68553625	     39.55501705	     46.84450371	     54.12919790
      4.20000000	    -11.72556303	      3.01564102	     -1.72637553	      0.43031917	      0.96026133	     -0.08368388	     12.84803033	     -9.18725122	      0.00314692	     16.05089559	      0.28014098	      9.53337380	    -17.72052981	     -7.49999987	     15.74946292	     -3.13127959	     -7.01625391	     21.32027856	      0.37210906	      5.51789698	    -12.31863614	     -7.49999987	     -8.44231345	      2.43952958	     -3.25520782	     -2.44860114	    -17.91799949	     21.88436601	     26.19538494	     52.44971848	     -1.98486088	    -25.38712085	     39.72383946	     45.59390231	     53.80513355
      4.20416670	    -11.90446962	      2.97805043	     -1.80702739	      0.43060780	      0.96265594	     -0.08369913	     12.68354573	     -9.03773903	      0.40799105	     15.40744791	      0.26891070	      9.10411416	    -17.67804194	     -7.49999987	     15.73801157	     -3.20853066	     -7.06278120	     21.00233965	      0.36655998	      5.31171664	    -12.23334242	     -7.49999987	     -8.10843355	      2.43171653	     -3.32546688	     -2.57298466	    -17.67308427	     21.47558749	     26.01762509	     52.46034363	     -2.07490373	    -25.26793013	     39.68983067	     45.33081921	     53.87772194
      4.20833330	    -11.96260156	      2.87470879	     -1.72069182	      0.43080760	      0.96254303	     -0.08421035	     12.38399828	     -8.88030841	      0.64958088	     14.85300850	      0.25923390	      8.83066383	    -17.56136282	     -7.49999987	     15.67196960	     -3.34327920	     -7.10126560	     20.81869913	      0.36335485	      5.16919198	    -12.18253447	     -7.49999987	     -7.81914509	      2.51181503	     -3.56290491	     -2.88385677	    -17.33812307	     21.06348501	     25.88116576	     52.42744886	     -2.16656265	    -25.16153822	     39.68410430	     45.06304096	     53.93370168
      4.21250000	    -12.09062673	      2.81046818	     -1.72806783	      0.43095810	      0.96201099	     -0.08406314	     12.31900493	     -8.75027161	      0.97828591	     14.52236959	      0.25346316	      8.65664131	    -17.59281457	     -7.49999987	     15.74281195	     -3.47076300	     -7.22800756	     20.76417834	      0.36240328	      5.16996002	    -12.06820024	     -7.49999987	     -7.53434700	      2.54627028	     -3.48007868	     -3.43060073	    -16.83348783	     19.46229306	     25.93059511	     50.76395292	     -1.81391786	    -25.14544326	     40.75576212	     44.59957967	     52.71229975
